# xmcd
#
# Track frame offsets: 
#        150
#        8749
#        35588
#        55144
#        69052
#        90476
#        117562
#        134806
#        152266
#        176076
#        190360
#        218836
#
# Disc length: 3135 seconds
#
# Revision: 0
# Processed by: cddbd v1.5.2PL0 Copyright (c) Steve Scherf et al.
# Submitted via: ExactAudioCopy v1.3
#
DISCID=a10c3d0c
DTITLE=Laura Hackett - Love Will Have It's Day
DYEAR=2014
DGENRE=Contemporary Christian
TTITLE0=Changes Everything
TTITLE1=The Love Inside
TTITLE2=Lift Up Your Head
TTITLE3=Beautiful Heart
TTITLE4=Song of Destiny
TTITLE5=He Shall Reign
TTITLE6=King Jesus
TTITLE7=Anger
TTITLE8=I Feel His Love
TTITLE9=Got Something Going On
TTITLE10=Brilliant Light
TTITLE11=Cover Me
EXTD=
EXTT0=
EXTT1=
EXTT2=
EXTT3=
EXTT4=
EXTT5=
EXTT6=
EXTT7=
EXTT8=
EXTT9=
EXTT10=
EXTT11=
PLAYORDER=
